<?xml version="1.0" standalone="no"?>
<!DOCTYPE svg PUBLIC "-//W3C//DTD SVG 20010904//EN"
 "http://www.w3.org/TR/2001/REC-SVG-20010904/DTD/svg10.dtd">
<svg version="1.0" xmlns="http://www.w3.org/2000/svg"
 width="512.000000pt" height="512.000000pt" viewBox="0 0 512.000000 512.000000"
 preserveAspectRatio="xMidYMid meet">
<metadata>
Created by potrace 1.14, written by Peter Selinger 2001-2017
</metadata>
<g transform="translate(0.000000,512.000000) scale(0.100000,-0.100000)"
fill="#000000" stroke="none">
<path d="M2410 4874 c-729 -54 -1378 -431 -1785 -1039 -134 -200 -260 -493
-318 -740 -46 -194 -60 -315 -60 -530 -1 -366 69 -679 222 -1000 184 -385 473
-717 826 -948 188 -123 469 -245 694 -302 782 -197 1602 21 2179 579 203 197
346 393 467 641 317 648 323 1374 16 2020 -112 235 -244 426 -426 614 -198
204 -386 341 -640 466 -230 113 -456 183 -705 219 -108 16 -373 27 -470 20z
m70 -994 l0 -840 80 0 80 0 0 840 0 840 25 0 c127 0 406 -53 580 -111 196 -65
523 -233 512 -263 -3 -6 -221 -310 -486 -674 -265 -364 -482 -666 -484 -671
-3 -12 117 -101 126 -92 4 4 224 306 490 672 266 365 488 664 494 664 24 0
196 -161 288 -267 52 -61 127 -158 166 -217 68 -101 211 -377 224 -431 l6 -26
-793 -258 c-436 -141 -794 -259 -796 -260 -1 -2 6 -26 17 -53 10 -27 21 -60
23 -73 2 -19 8 -24 23 -22 17 3 1525 491 1568 508 17 6 46 -102 74 -278 23
-141 23 -475 0 -616 -28 -176 -57 -284 -74 -278 -39 15 -1551 505 -1567 508
-15 2 -21 -7 -32 -50 -8 -29 -19 -62 -24 -73 -9 -15 -7 -21 5 -25 9 -4 367
-121 797 -260 429 -139 782 -255 784 -257 6 -6 -44 -123 -101 -236 -66 -133
-169 -289 -267 -406 -75 -91 -239 -253 -296 -293 l-30 -22 -493 679 -494 679
-25 -19 c-14 -11 -42 -31 -62 -45 -21 -13 -38 -28 -38 -32 0 -4 221 -310 491
-681 l490 -675 -53 -33 c-279 -175 -649 -298 -965 -321 l-103 -8 0 838 0 838
-80 0 -80 0 0 -840 0 -840 -62 6 c-311 27 -563 96 -819 224 -93 46 -216 116
-237 135 -2 2 218 307 488 680 271 372 491 678 489 679 -2 2 -26 21 -54 41
-27 21 -55 42 -61 47 -8 6 -156 -190 -475 -629 -254 -351 -477 -657 -494 -680
l-32 -42 -104 93 c-171 153 -318 336 -438 546 -62 107 -149 305 -140 315 3 3
361 120 795 261 434 141 790 257 792 259 1 1 -6 26 -18 54 -11 28 -20 61 -20
71 0 11 -7 20 -16 20 -8 0 -369 -115 -801 -256 -432 -140 -787 -253 -790 -251
-9 10 -43 153 -60 257 -22 129 -25 513 -5 628 19 112 53 268 62 281 5 9 222
-57 793 -243 432 -141 793 -256 801 -256 10 0 16 9 16 23 1 69 93 216 170 272
23 17 51 37 62 46 21 16 13 27 -471 694 -374 514 -490 680 -479 687 285 193
672 323 1038 351 25 2 51 4 58 5 9 2 12 -172 12 -838z"/>
</g>
</svg>
